<svg width="296" height="153" viewBox="0 0 296 153" fill="none" xmlns="http://www.w3.org/2000/svg" shape-rendering="geometricPrecision">
  <g clip-path="url(#clip0_34_341)">
    <!-- Crown Main Body -->
    <path d="M125.798 41.0117C123.392 34.3416 120.986 27.6715 118.58 21.0013C118.238 20.0546 117.896 19.106 117.556 18.1593C117.38 17.6682 116.893 17.3108 116.354 17.4738C114.951 17.8961 113.676 16.1971 114.927 15.1385C115.43 14.7123 116.194 14.7123 116.698 15.1385C117.343 15.6845 117.267 16.4996 116.831 17.1478C116.6 17.4915 116.678 18.0611 116.983 18.338C120.06 21.131 124.127 27.092 129.004 24.849C133.186 22.9262 131.836 16.5448 131.918 12.9171C131.928 12.5282 131.611 12.0352 131.201 11.9704C129.889 11.7622 129.164 10.0043 130.597 9.32077C132.156 8.57834 133.134 10.6367 131.977 11.7052C131.679 11.9802 131.588 12.5498 131.824 12.8955C134.064 16.1736 136.704 22.9026 141.81 21.3843C146.411 20.0154 146.829 13.6222 148.054 9.79609C148.178 9.41505 147.98 8.8651 147.605 8.68637C146.305 8.06767 146.329 5.96411 148.002 5.96411C149.675 5.96411 149.698 8.06964 148.396 8.68637C148.023 8.86314 147.824 9.41112 147.947 9.79609C149.172 13.6222 149.589 20.0134 154.192 21.3843C159.297 22.9046 161.937 16.1736 164.177 12.8955C164.412 12.5517 164.326 11.9841 164.025 11.7052C162.868 10.6348 163.845 8.57834 165.405 9.32077C166.837 10.0023 166.114 11.7602 164.801 11.9704C164.392 12.0352 164.074 12.5223 164.083 12.9171C164.166 16.5448 162.815 22.9262 166.998 24.849C171.874 27.0901 175.942 21.131 179.018 18.336C179.321 18.0611 179.403 17.4915 179.17 17.1458C178.737 16.4996 178.66 15.6825 179.303 15.1365C179.806 14.7103 180.57 14.7103 181.074 15.1365C182.325 16.1971 181.051 17.8941 179.647 17.4718C179.112 17.3108 178.621 17.6682 178.445 18.1573C176.039 24.8274 173.633 31.4975 171.227 38.1677C170.885 39.1144 170.543 40.063 170.203 41.0097L171.638 40.4225C169.695 38.9671 167.283 38.1362 164.973 37.494C161.67 36.5767 158.251 36.0739 154.842 35.7754C147.357 35.1213 139.548 35.3884 132.223 37.1836C129.516 37.8475 126.629 38.7274 124.366 40.4225C123.369 41.1688 124.342 42.8756 125.353 42.1175C127.207 40.7269 129.469 39.955 131.679 39.352C134.889 38.4741 138.196 37.985 141.507 37.71C148.715 37.1129 156.213 37.3506 163.263 39.077C165.827 39.7036 168.508 40.5128 170.653 42.1175C171.2 42.528 171.896 42.0625 172.087 41.5302C174.493 34.8601 176.899 28.19 179.305 21.5199C179.647 20.5732 179.989 19.6245 180.329 18.6778L179.127 19.3633C182.552 20.3925 185.134 15.9084 182.268 13.5908C179.313 11.2004 175.39 15.0206 177.482 18.1318L177.634 16.9415C175.983 18.4401 174.525 20.145 172.824 21.5886C171.462 22.7455 169.597 23.922 167.785 23.0538C166.316 22.3487 166.077 20.4691 166.001 19.0176C165.891 16.9828 166.083 14.946 166.038 12.9092L165.321 13.8559C168.632 13.3295 169.122 8.54495 165.932 7.41166C162.502 6.19391 160.024 10.6642 162.641 13.086L162.489 11.8957C161.255 13.7027 160.262 15.6845 158.924 17.4168C157.845 18.8114 156.363 20.1136 154.504 19.4143C152.829 18.7839 152.055 16.8846 151.533 15.3093C150.875 13.3217 150.47 11.2594 149.831 9.26578L149.382 10.3755C152.509 8.89849 151.508 4 148 4C144.489 4 143.493 8.89653 146.618 10.3834L146.168 9.27364C145.529 11.2672 145.125 13.3295 144.466 15.3172C143.944 16.8924 143.17 18.7897 141.495 19.4222C139.634 20.1234 138.155 18.8172 137.076 17.4247C135.735 15.6943 134.744 13.7086 133.511 11.9036L133.358 13.0938C135.974 10.6721 133.499 6.1998 130.067 7.41952C126.877 8.55281 127.368 13.3354 130.679 13.8638L129.961 12.9171C129.916 14.9106 130.098 16.9062 130.004 18.8978C129.934 20.3807 129.723 22.3369 128.212 23.0597C126.449 23.9043 124.627 22.8064 123.281 21.6868C121.532 20.2294 120.048 18.4775 118.361 16.9474L118.514 18.1377C120.605 15.0265 116.682 11.2044 113.727 13.5966C110.864 15.9143 113.444 20.3984 116.868 19.3692L115.666 18.6837C118.072 25.3538 120.478 32.0239 122.884 38.694C123.226 39.6407 123.568 40.5894 123.908 41.5361C124.334 42.7146 126.222 42.2059 125.792 41.0137L125.798 41.0117Z" fill="url(#paint0_linear_34_341)"/>
    <!-- Crown Base Rim -->
    <path fill-rule="evenodd" clip-rule="evenodd" d="M148 38.7765C160.497 38.7765 170.631 41.1708 170.631 44.1209C170.631 45.649 167.915 47.0258 163.56 48C165.917 47.2438 167.311 46.3109 167.311 45.2993C167.311 42.7814 158.662 40.7387 147.998 40.7387C137.334 40.7387 128.685 42.7814 128.685 45.2993C128.685 46.3109 130.079 47.2438 132.436 48C128.081 47.0258 125.365 45.647 125.365 44.1209C125.365 41.1708 135.499 38.7765 147.996 38.7765H148Z" fill="url(#paint1_linear_34_341)"/>
  </g>

  <!-- DAEGUK Crisp Text -->
  <g>
    <!-- Crisp Drop Shadow Layer -->
    <path d="M14.8963 107V104.12H16.2403C17.1363 104.12 17.9256 104.013 18.6083 103.8C19.3336 103.587 19.9096 103.16 20.3363 102.52C20.7629 101.88 20.9763 100.92 20.9763 99.64V68.408C20.9763 67.1707 20.7416 66.2533 20.2723 65.656C19.8456 65.0587 19.2696 64.6747 18.5443 64.504C17.8616 64.2907 17.0936 64.184 16.2403 64.184H14.8963V61.304H34.9283C39.4083 61.304 43.2269 62.1787 46.3843 63.928C49.5843 65.6347 52.0376 68.1733 53.7443 71.544C55.4509 74.9147 56.3043 79.032 56.3043 83.896C56.3043 88.5467 55.4936 92.6 53.8723 96.056C52.2936 99.512 49.9256 102.2 46.7683 104.12C43.6109 106.04 39.6643 107 34.9283 107H14.8963ZM33.4563 103.544C36.7416 103.544 39.4509 102.776 41.5843 101.24C43.7603 99.704 45.4029 97.4853 46.5123 94.584C47.6216 91.64 48.1763 88.0773 48.1763 83.896C48.1763 79.7147 47.6216 76.216 46.5123 73.4C45.4029 70.5413 43.7603 68.3867 41.5843 66.936C39.4509 65.4427 36.7629 64.696 33.5203 64.696H28.4003V103.544H33.4563ZM58.7203 107V104.12H59.8083C60.6616 104.12 61.3443 103.992 61.8563 103.736C62.4109 103.48 62.9016 103.011 63.3283 102.328C63.7976 101.603 64.2669 100.557 64.7363 99.192L78.8803 61.304H84.8963L99.0403 100.408C99.4243 101.389 99.8083 102.157 100.192 102.712C100.619 103.224 101.11 103.587 101.664 103.8C102.262 104.013 102.944 104.12 103.712 104.12H104.608V107H86.0483V104.12H87.7763C88.8856 104.12 89.7603 103.885 90.4003 103.416C91.0403 102.947 91.3603 102.2 91.3603 101.176C91.3603 100.92 91.3389 100.664 91.2963 100.408C91.2536 100.152 91.1896 99.8747 91.1043 99.576C91.0189 99.2773 90.9336 99 90.8483 98.744L88.3523 91.768H71.8403L69.6003 98.168C69.4723 98.5093 69.3656 98.872 69.2803 99.256C69.1949 99.5973 69.1096 99.9387 69.0243 99.28C68.9816 99.5787 68.9603 99.8773 68.9603 100.176C68.9603 102.157 69.3016 102.904 69.9843 103.416C70.6669 103.885 71.6056 104.12 72.8003 104.12H74.6562V107H58.7203ZM73.1203 88.376H87.1363L83.3603 77.368C82.9763 76.1733 82.5709 75 82.1443 73.848C81.7603 72.696 81.4189 71.5867 81.1203 70.52C80.8216 69.4107 80.5443 68.344 80.2883 67.32C80.1176 68.088 79.9256 68.856 79.7123 69.624C79.4989 70.3493 79.2643 71.096 79.0083 71.864C78.7949 72.632 78.5389 73.4427 78.2403 74.296C77.9843 75.1067 77.6643 75.96 77.2803 76.856L73.1203 88.376ZM106.834 107V104.12H108.178C109.031 104.12 109.799 104.035 110.482 103.864C111.207 103.651 111.783 103.245 112.21 102.648C112.679 102.051 112.914 101.155 112.914 99.96V68.664C112.914 67.3413 112.7 66.3813 112.274 65.784C111.847 65.144 111.271 64.7173 110.546 64.504C109.863 64.2907 109.074 64.184 108.178 64.184H106.834V61.304H139.986L140.306 72.632H136.658L136.338 69.816C136.252 68.8773 136.018 68.024 135.634 67.256C135.25 66.488 134.695 65.8693 133.97 65.4C133.244 64.9307 132.306 64.696 131.154 64.696H120.402V81.464H135.762V84.792H120.402V103.608H132.882C134.076 103.608 135.058 103.373 135.826 102.904C136.594 102.435 137.17 101.816 137.554 101.048C137.98 100.28 138.258 99.4267 138.386 98.488L138.834 95.672H142.482L142.034 107H106.834ZM171.017 107.64C165.982 107.64 161.801 106.659 158.473 104.696C155.145 102.733 152.649 100.003 150.985 96.504C149.363 92.9627 148.553 88.824 148.553 84.088C148.553 79.48 149.406 75.4267 151.113 71.928C152.862 68.3867 155.422 65.6347 158.793 63.672C162.206 61.6667 166.409 60.6667 171.401 60.6667C174.643 60.6667 177.353 60.984 179.529 61.624C181.705 62.264 183.326 63.1387 184.393 64.248C185.502 65.3147 186.057 66.5307 186.057 67.896C186.057 69.304 185.438 70.456 184.201 71.352C182.963 72.2053 181.385 72.632 179.465 72.632C179.465 71.1813 179.187 69.8373 178.633 68.6C178.078 66.32 177.182 66.2747 175.945 65.464C174.75 64.6533 173.15 64.248 171.145 64.248C167.646 64.248 164.83 65.016 162.697 66.552C160.606 68.088 159.07 70.3493 158.089 73.336C157.15 76.28 156.681 79.864 156.681 84.088C156.681 88.312 157.171 91.896 158.153 94.84C159.177 97.784 160.798 100.024 163.017 101.56C165.278 103.053 168.286 103.8 172.041 103.8C173.15 103.8 174.217 103.757 175.241 103.672C176.307 103.544 177.267 103.352 178.121 103.096V93.048C178.121 91.8107 177.886 90.872 177.417 90.232C176.99 89.592 176.393 89.1653 175.625 88.952C174.899 88.7387 174.046 88.632 173.065 88.632H172.681V85.752H190.281V88.632H189.833C189.022 88.632 188.297 88.76 187.657 89.016C187.017 89.2293 186.505 89.6773 186.121 90.36C185.779 91 185.609 91.9813 185.609 93.304V104.568C183.39 105.592 181.107 106.36 178.761 106.872C176.414 107.384 173.833 107.64 171.017 107.64ZM215.21 107.64C211.754 107.64 208.788 107.171 206.314 106.232C203.839 105.251 201.94 103.693 200.618 101.56C199.295 99.4267 198.634 96.6107 198.634 93.112V68.408C198.634 67.1707 198.399 66.2533 197.93 65.656C197.503 65.0587 196.927 64.6747 196.202 64.504C195.519 64.2907 194.772 64.184 193.962 64.184H192.554V61.304H212.138V64.184H210.794C209.94 64.184 209.151 64.2907 208.426 64.504C207.7 64.7173 207.124 65.144 206.698 65.784C206.314 66.3813 206.122 67.3413 206.122 68.664V93.56C206.122 95.992 206.548 97.9547 207.402 99.448C208.298 100.899 209.535 101.965 211.114 102.648C212.692 103.288 214.484 103.608 216.49 103.608C218.794 103.608 220.714 103.203 222.25 102.392C223.786 101.581 224.916 100.451 225.642 99C226.41 97.5067 226.794 95.7573 226.794 93.752V68.408C226.794 67.1707 226.58 66.2533 226.154 65.656C225.727 65.0587 225.151 64.6747 224.426 64.504C223.743 64.2907 222.975 64.184 222.122 64.184H220.778V61.304H237.034V64.184H235.69C234.836 64.184 234.047 64.2907 233.322 64.504C232.596 64.7173 232.02 65.144 231.594 65.784C231.167 66.3813 230.954 67.3413 230.954 68.664V93.88C230.954 96.7387 230.356 99.192 229.162 101.24C228.01 103.288 226.26 104.867 223.914 105.976C221.61 107.085 218.708 107.64 215.21 107.64ZM240.209 107V104.12H241.553C242.406 104.12 243.174 104.035 243.857 103.864C244.582 103.651 245.158 103.245 245.585 102.648C246.054 102.051 246.289 101.155 246.289 99.96V68.408C246.289 67.1707 246.054 66.2533 245.585 65.656C245.158 65.0587 244.582 64.6747 243.857 64.504C243.174 64.2907 242.406 64.184 241.553 64.184H240.209V61.304H259.793V64.184H258.449C257.595 64.184 256.806 64.2907 256.081 64.504C255.355 64.7173 254.779 65.144 254.353 65.784C253.926 66.3813 253.713 67.3413 253.713 68.664V85.88L266.065 71.864C267.003 70.84 267.707 69.944 268.177 69.176C268.689 68.408 269.051 67.7467 269.265 67.192C269.521 66.5947 269.649 66.0827 269.649 65.656C269.649 65.2293 269.521 64.9093 269.265 64.696C269.051 64.4827 268.71 64.3333 268.241 64.248C267.771 64.1627 267.153 64.12 266.385 64.12V61.304H281.361V64.12C280.337 64.12 279.355 64.376 278.417 64.888C277.521 65.3573 276.603 66.04 275.665 66.936C274.726 67.7893 273.723 68.8133 272.657 70.008L263.569 80.12L276.625 99C277.265 99.8533 277.862 100.6 278.417 101.24C279.014 101.88 279.59 102.435 280.145 102.904C280.742 103.331 281.339 103.651 281.937 103.864C282.534 104.035 283.153 104.12 283.793 104.12H283.921V107H282.449C280.23 107 278.395 106.915 276.945 106.744C275.537 106.531 274.363 106.211 273.425 105.784C272.486 105.315 271.675 104.717 270.993 103.992C270.31 103.267 269.585 102.328 268.817 101.176L258.449 85.688L253.713 90.232V99.64C253.713 100.92 253.926 100.88 254.353 102.52C254.779 103.16 255.355 103.587 256.081 103.8C256.806 104.013 257.595 104.12 258.449 104.12H259.793V107H240.209Z" fill="#140b02" opacity="0.75"/>
    <!-- Crisp Gold Fill Layer -->
    <path d="M14.8963 106V103.12H16.2403C17.1363 103.12 17.9256 103.013 18.6083 102.8C19.3336 102.587 19.9096 102.16 20.3363 101.52C20.7629 100.88 20.9763 99.92 20.9763 98.64V67.408C20.9763 66.1707 20.7416 65.2533 20.2723 64.656C19.8456 64.0587 19.2696 63.6747 18.5443 63.504C17.8616 63.2907 17.0936 63.184 16.2403 63.184H14.8963V60.304H34.9283C39.4083 60.304 43.2269 61.1787 46.3843 62.928C49.5843 64.6347 52.0376 67.1733 53.7443 70.544C55.4509 73.9147 56.3043 78.032 56.3043 82.896C56.3043 87.5467 55.4936 91.6 53.8723 95.056C52.2936 98.512 49.9256 101.2 46.7683 103.12C43.6109 105.04 39.6643 106 34.9283 106H14.8963ZM33.4563 102.544C36.7416 102.544 39.4509 101.776 41.5843 100.24C43.7603 98.704 45.4029 96.4853 46.5123 93.584C47.6216 90.64 48.1763 87.0773 48.1763 82.896C48.1763 78.7147 47.6216 75.216 46.5123 72.4C45.4029 69.5413 43.7603 67.3867 41.5843 65.936C39.4509 64.4427 36.7629 63.696 33.5203 63.696H28.4003V102.544H33.4563ZM58.7203 106V103.12H59.8083C60.6616 103.12 61.3443 102.992 61.8563 102.736C62.4109 102.48 62.9016 102.011 63.3283 101.328C63.7976 100.603 64.2669 99.5573 64.7363 98.192L78.8803 60.304H84.8963L99.0403 99.408C99.4243 100.389 99.8083 101.157 100.192 101.712C100.619 102.224 101.11 102.587 101.664 102.8C102.262 103.013 102.944 103.12 103.712 103.12H104.608V106H86.0483V103.12H87.7763C88.8856 103.12 89.7603 102.885 90.4003 102.416C91.0403 101.947 91.3603 101.2 91.3603 100.176C91.3603 99.92 91.3389 99.664 91.2963 99.408C91.2536 99.152 91.1896 98.8747 91.1043 98.576C91.0189 98.2773 90.9336 98 90.8483 97.744L88.3523 90.768H71.8403L69.6003 97.168C69.4723 97.5093 69.3656 97.872 69.2803 98.256C69.1949 98.5973 69.1096 98.9387 69.0243 99.28C68.9816 99.5787 68.9603 99.8773 68.9603 100.176C68.9603 101.157 69.3016 101.904 69.9843 102.416C70.6669 102.885 71.6056 103.12 72.8003 103.12H74.6562V106H58.7203ZM73.1203 87.376H87.1363L83.3603 76.368C82.9763 75.1733 82.5709 74 82.1443 72.848C81.7603 71.696 81.4189 70.5867 81.1203 69.52C80.8216 68.4107 80.5443 67.344 80.2883 66.32C80.1176 67.088 79.9256 67.856 79.7123 68.624C79.4989 69.3493 79.2643 70.096 79.0083 70.864C78.7949 71.632 78.5389 72.4427 78.2403 73.296C77.9843 74.1067 77.6643 74.96 77.2803 75.856L73.1203 87.376ZM106.834 106V103.12H108.178C109.031 103.12 109.799 103.035 110.482 102.864C111.207 102.651 111.783 102.245 112.21 101.648C112.679 101.051 112.914 100.155 112.914 98.96V67.664C112.914 66.3413 112.7 65.3813 112.274 64.784C111.847 64.144 111.271 63.7173 110.546 63.504C109.863 63.2907 109.074 63.184 108.178 63.184H106.834V60.304H139.986L140.306 71.632H136.658L136.338 68.816C136.252 67.8773 136.018 67.024 135.634 66.256C135.25 65.488 134.695 64.8693 133.97 64.4C133.244 63.9307 132.306 63.696 131.154 63.696H120.402V80.464H135.762V83.792H120.402V102.608H132.882C134.076 102.608 135.058 102.373 135.826 101.904C136.594 101.435 137.17 100.816 137.554 100.048C137.98 99.28 138.258 98.4267 138.386 97.488L138.834 94.672H142.482L142.034 106H106.834ZM171.017 106.64C165.982 106.64 161.801 105.659 158.473 103.696C155.145 101.733 152.649 99.0027 150.985 95.504C149.363 91.9627 148.553 87.824 148.553 83.088C148.553 78.48 149.406 74.4267 151.113 70.928C152.862 67.3867 155.422 64.6347 158.793 62.672C162.206 60.6667 166.409 59.664 171.401 59.664C174.643 59.664 177.353 59.984 179.529 60.624C181.705 61.264 183.326 62.1387 184.393 63.248C185.502 64.3147 186.057 65.5307 186.057 66.896C186.057 68.304 185.438 69.456 184.201 70.352C182.963 71.2053 181.385 71.632 179.465 71.632C179.465 70.1813 179.187 68.8373 178.633 67.6C178.078 66.32 177.182 65.2747 175.945 64.464C174.75 63.6533 173.15 63.248 171.145 63.248C167.646 63.248 164.83 64.016 162.697 65.552C160.606 68.088 159.07 69.3493 158.089 72.336C157.15 75.28 156.681 78.864 156.681 83.088C156.681 87.312 157.171 90.896 158.153 93.84C159.177 96.784 160.798 99.024 163.017 100.56C165.278 102.053 168.286 102.8 172.041 102.8C173.15 102.8 174.217 102.757 175.241 102.672C176.307 102.544 177.267 102.352 178.121 102.096V92.048C178.121 90.8107 177.886 89.872 177.417 89.232C176.99 88.592 176.393 88.1653 175.625 87.952C174.899 87.7387 174.046 87.632 173.065 87.632H172.681V84.752H190.281V87.632H189.833C189.022 87.632 188.297 87.76 187.657 88.016C187.017 88.2293 186.505 88.6773 186.121 89.36C185.779 90 185.609 90.9813 185.609 92.304V103.568C183.39 104.592 181.107 105.36 178.761 105.872C176.414 106.384 173.833 106.64 171.017 106.64ZM215.21 106.64C211.754 106.64 208.788 106.171 206.314 105.232C203.839 104.251 201.94 102.693 200.618 100.56C199.295 98.4267 198.634 95.6107 198.634 92.112V67.408C198.634 66.1707 198.399 65.2533 197.93 64.656C197.503 64.0587 196.927 63.6747 196.202 63.504C195.519 63.2907 194.772 63.184 193.962 63.184H192.554V60.304H212.138V63.184H210.794C209.94 63.184 209.151 63.2907 208.426 63.504C207.7 63.7173 207.124 64.144 206.698 64.784C206.314 65.3813 206.122 66.3413 206.122 67.664V92.56C206.122 94.992 206.548 96.9547 207.402 98.448C208.298 99.8987 209.535 100.965 211.114 101.648C212.692 102.288 214.484 102.608 216.49 102.608C218.794 102.608 220.714 102.203 222.25 101.392C223.786 100.581 224.916 99.4507 225.642 98C226.41 96.5067 226.794 94.7573 226.794 92.752V67.408C226.794 66.1707 226.58 65.2533 226.154 64.656C225.727 64.0587 225.151 63.6747 224.426 63.504C223.743 63.2907 222.975 63.184 222.122 63.184H220.778V60.304H237.034V63.184H235.69C234.836 63.184 234.047 63.2907 233.322 63.504C232.596 63.7173 232.02 64.144 231.594 64.784C231.167 65.3813 230.954 66.3413 230.954 67.664V92.88C230.954 95.7387 230.356 98.192 229.162 100.24C228.01 102.288 226.26 103.867 223.914 104.976C221.61 106.085 218.708 106.64 215.21 106.64ZM240.209 106V103.12H241.553C242.406 103.12 243.174 103.035 243.857 102.864C244.582 102.651 245.158 102.245 245.585 101.648C246.054 101.051 246.289 100.155 246.289 98.96V67.408C246.289 66.1707 246.054 65.2533 245.585 64.656C245.158 64.0587 244.582 63.6747 243.857 63.504C243.174 63.2907 242.406 63.184 241.553 63.184H240.209V60.304H259.793V63.184H258.449C257.595 63.184 256.806 63.2907 256.081 63.504C255.355 63.7173 254.779 64.144 254.353 64.784C253.926 65.3813 253.713 66.3413 253.713 67.664V84.88L266.065 70.864C267.003 69.84 267.707 68.944 268.177 68.176C268.689 67.408 269.051 66.7467 269.265 66.192C269.521 65.5947 269.649 65.0827 269.649 64.656C269.649 64.2293 269.521 63.9093 269.265 63.696C269.051 63.4827 268.71 63.3333 268.241 63.248C267.771 63.1627 267.153 63.12 266.385 63.12V60.304H281.361V63.12C280.337 63.12 279.355 63.376 278.417 63.888C277.521 64.3573 276.603 65.04 275.665 65.936C274.726 66.7893 273.723 67.8133 272.657 69.008L263.569 79.12L276.625 98C277.265 98.8533 277.862 99.6 278.417 100.24C279.014 100.88 279.59 101.435 280.145 101.904C280.742 102.331 281.339 102.651 281.937 102.864C282.534 103.035 283.153 103.12 283.793 103.12H283.921V106H282.449C280.23 106 278.395 105.915 276.945 105.744C275.537 105.531 274.363 105.211 273.425 104.784C272.486 104.315 271.675 103.717 270.993 102.992C270.31 102.267 269.585 101.328 268.817 100.176L258.449 84.688L253.713 89.232V98.64C253.713 99.92 253.926 100.88 254.353 101.52C254.779 102.16 255.355 102.587 256.081 102.8C256.806 103.013 257.595 103.12 258.449 103.12H259.793V106H240.209Z" fill="url(#paint2_linear_34_341)"/>
  </g>

  <!-- 대국 Crisp Subtitle Text -->
  <g>
    <!-- Crisp Drop Shadow Layer -->
    <path d="M106.576 139.496C106.88 139.496 107.208 139.52 107.56 139.568C107.928 139.6 108.272 139.648 108.592 139.712C108.912 139.76 109.168 139.816 109.36 139.88C109.584 139.96 109.696 140.112 109.696 140.336C109.696 140.56 109.632 140.768 109.504 140.96C109.376 141.152 109.248 141.272 109.12 141.32C108.928 141.288 108.648 141.264 108.28 141.248C107.928 141.232 107.568 141.224 107.2 141.224C106.832 141.208 106.528 141.2 106.288 141.2C106.016 141.2 105.52 141.208 104.8 141.224C104.08 141.224 103.24 141.232 102.28 141.248C101.336 141.248 100.344 141.256 99.3042 141.272C98.2802 141.272 97.2962 141.28 96.3522 141.296C95.4242 141.312 94.6242 141.328 93.9522 141.344C93.2802 141.36 92.8322 141.376 92.6082 141.392C92.4162 141.408 92.1602 141.448 91.8402 141.512C91.5202 141.56 91.2002 141.616 90.8802 141.68C90.5762 141.744 90.3202 141.808 90.1122 141.872C89.6642 141.712 89.2162 141.504 88.7682 141.248C88.3362 140.992 87.9682 140.736 87.6642 140.48C87.5842 140.416 87.5602 140.336 87.5922 140.24L87.7842 139.88C88.2002 139.944 88.6642 140 89.1762 140.048C89.7042 140.096 90.1602 140.128 90.5442 140.144C90.7682 140.144 91.1762 140.144 91.7682 140.144C92.3602 140.144 93.0722 140.144 93.9042 140.144C94.7362 140.128 95.6322 140.112 96.5922 140.096C97.5522 140.08 98.5122 140.064 99.4722 140.048C100.432 140.032 101.336 140.016 102.184 140C103.032 139.984 103.76 139.968 104.368 139.952C104.992 139.936 105.424 139.92 105.664 139.904L106.576 139.496ZM103.864 126.92C103.464 126.92 102.944 126.928 102.304 126.944C101.664 126.944 100.968 126.952 100.216 126.968C99.4802 126.968 98.7602 126.976 98.0562 126.992C97.3522 127.008 96.7202 127.024 96.1602 127.04C95.6162 127.056 95.2162 127.072 94.9602 127.088C94.6562 127.104 94.2562 127.152 93.7602 127.232C93.2802 127.312 92.8962 127.4 92.6082 127.496C92.2242 127.336 91.8402 127.136 91.4562 126.896C91.0722 126.656 90.7362 126.416 90.4482 126.176C90.3522 126.08 90.3282 125.992 90.3762 125.912L90.5442 125.576C90.9282 125.64 91.3442 125.696 91.7922 125.744C92.2562 125.776 92.6562 125.792 92.9922 125.792C93.2162 125.792 93.5922 125.792 94.1202 125.792C94.6642 125.792 95.3042 125.792 96.0402 125.792C96.7762 125.776 97.5362 125.76 98.3202 125.744C99.1202 125.728 99.8882 125.712 100.624 125.696C101.376 125.68 102.04 125.664 102.616 125.648C103.192 125.632 103.608 125.616 103.864 125.6V126.92ZM106.024 127.088L103.696 126.92V125.624L104.68 125.144C104.824 125.08 104.968 125.08 105.112 125.144C105.288 125.224 105.504 125.344 105.76 125.504C106.016 125.648 106.2 125.768 106.312 125.864C106.408 125.96 106.432 126.072 106.384 126.2L106.024 127.088ZM103.12 137.216C103.008 137.2 102.96 137.088 102.976 136.88C103.088 136.16 103.192 135.376 103.288 134.528C103.384 133.664 103.456 132.784 103.504 131.888C103.568 130.976 103.616 130.096 103.648 129.248C103.68 128.4 103.696 127.624 103.696 126.92L104.944 126.56L106.024 127.088C105.992 128.032 105.88 129.104 105.688 130.304C105.512 131.488 105.28 132.68 104.992 133.88C104.704 135.08 104.384 136.16 104.032 137.12C103.968 137.264 103.848 137.328 103.672 137.312L103.12 137.216ZM96.6882 133.736C96.5442 133.576 96.3282 133.424 96.0402 133.28C95.7682 133.12 95.4802 132.992 95.1762 132.896L95.3202 132.296C95.3362 132.248 95.3602 132.216 95.3922 132.2C95.4402 132.168 95.5122 132.152 95.6082 132.152C95.8802 132.152 96.2082 132.176 96.5922 132.224C96.9762 132.256 97.3442 132.304 97.6962 132.368C98.0642 132.416 98.3522 132.472 98.5602 132.536C98.7522 132.6 98.8402 132.744 98.8242 132.968L98.7042 134.072L96.6882 133.736ZM98.6322 140.528H96.7362L96.6882 133.736L98.7042 134.072L98.6322 140.528ZM129.756 134.624C130.06 134.624 130.388 134.648 130.74 134.696C131.108 134.728 131.452 134.776 131.772 134.84C132.092 134.888 132.348 134.944 132.54 135.008C132.764 135.072 132.876 135.216 132.876 135.44C132.876 135.68 132.812 135.896 132.684 136.088C132.556 136.264 132.428 136.384 132.3 136.448C132.108 136.416 131.828 136.392 131.46 136.376C131.108 136.36 130.748 136.352 130.38 136.352C130.012 136.336 129.708 136.328 129.468 136.328C129.196 136.328 128.7 136.336 127.98 136.352C127.26 136.352 126.42 136.36 125.46 136.376C124.516 136.376 123.524 136.384 122.484 136.4C121.46 136.4 120.476 136.408 119.532 136.424C118.604 136.44 117.804 136.456 117.132 136.472C116.46 136.488 116.012 136.504 115.788 136.52C115.596 136.536 115.34 136.576 115.02 136.64C114.7 136.688 114.38 136.744 114.06 136.808C113.756 136.872 113.5 136.936 113.292 137C112.844 136.84 112.396 136.632 111.948 136.376C111.516 136.12 111.148 135.864 110.844 135.608C110.764 135.528 110.74 135.448 110.772 135.368L110.964 135.008C111.38 135.072 111.844 135.128 112.356 135.176C112.884 135.224 113.34 135.248 113.724 135.248C113.948 135.248 114.356 135.248 114.948 135.248C115.54 135.248 116.252 135.248 117.084 135.248C117.916 135.232 118.812 135.224 119.772 135.224C120.732 135.208 121.692 135.192 122.652 135.176C123.612 135.16 124.516 135.144 125.364 135.128C126.212 135.112 126.94 135.096 127.548 135.08C128.172 135.048 128.604 135.024 128.844 135.008L129.756 134.624ZM121.02 145.424C121.004 145.168 120.98 144.84 120.948 144.44C120.932 144.04 120.916 143.616 120.9 143.168C120.884 142.736 120.868 142.32 120.852 141.92C120.852 141.52 120.852 141.176 120.852 140.888V135.632H122.868V140.264C122.868 140.6 122.844 141 122.796 141.464C122.764 141.912 122.716 142.384 122.652 142.88C122.604 143.36 122.532 143.816 122.436 144.248C122.356 144.696 122.268 145.088 122.172 145.424H121.02ZM121.236 125.12C120.964 124.736 120.548 124.4 119.988 124.112L120.324 123.56C120.388 123.464 120.5 123.424 120.66 123.44C120.98 123.472 121.324 123.536 121.692 123.632C122.06 123.728 122.404 123.832 122.724 123.944C123.06 124.04 123.316 124.144 123.492 124.256C123.732 124.352 123.852 124.528 123.852 124.784L121.236 125.12ZM112.812 132.68C112.748 132.584 112.78 132.504 112.908 132.44C114.204 131.784 115.388 131.056 116.46 130.256C117.548 129.456 118.492 128.624 119.292 127.76C120.108 126.88 120.756 126 121.236 125.12L123.852 124.784C123.836 124.912 123.812 125.024 123.78 125.12C123.748 125.216 123.716 125.296 123.684 125.36C123.092 126.448 122.284 127.472 121.26 128.432C120.252 129.392 119.076 130.264 117.732 131.048C116.404 131.816 114.948 132.472 113.364 133.016C113.268 133.048 113.18 133.048 113.1 133.016L112.812 132.68ZM129.348 131.912L121.068 127.784L126.996 129.272L128.676 129.488C128.964 129.664 129.276 129.88 129.612 130.136C129.964 130.376 130.22 130.584 130.38 130.76C130.636 131.016 130.764 131.232 130.764 131.408C130.764 131.584 130.692 131.744 130.548 131.888C130.404 132.032 130.244 132.112 130.068 132.128C129.972 132.128 129.852 132.112 129.708 132.08C129.58 132.032 129.46 131.976 129.348 131.912ZM126.996 129.272L126.924 129.416L121.068 127.784L121.644 126.68L126.996 129.272ZM151.136 145.592C151.104 145.352 151.072 145.024 151.04 144.608C151.024 144.208 151.008 143.776 150.992 143.312C150.976 142.848 150.96 142.408 150.944 141.992C150.944 141.56 150.944 141.208 150.944 140.936V124.568C150.752 124.312 150.472 124.072 150.104 123.848C149.752 123.608 149.36 123.416 148.928 123.272L149.144 122.624C149.16 122.576 149.184 122.544 149.216 122.528C149.264 122.512 149.336 122.504 149.432 122.504C149.752 122.504 150.12 122.544 150.536 122.624C150.952 122.688 151.36 122.768 151.76 122.864C152.16 122.96 152.48 123.056 152.72 123.152C152.944 123.232 153.048 123.408 153.032 123.68L152.96 125V140.264C152.96 140.616 152.944 141.024 152.912 141.488C152.88 141.952 152.832 142.432 152.768 142.928C152.72 143.424 152.656 143.904 152.576 144.368C152.496 144.832 152.4 145.24 152.288 145.592H151.136ZM138.8 139.856C138.544 139.872 138.208 139.928 137.792 140.024C137.376 140.104 137.056 140.192 136.832 140.288C136.4 140.112 135.96 139.888 135.512 139.616C135.064 139.328 134.672 139.04 134.336 138.752C134.224 138.672 134.2 138.584 134.264 138.488L134.408 138.152C134.856 138.216 135.328 138.272 135.824 138.32C136.32 138.352 136.776 138.368 137.192 138.368L138.8 139.856ZM151.424 137.84C151.44 137.984 151.376 138.072 151.232 138.104C150.64 138.248 149.936 138.4 149.12 138.56C148.32 138.704 147.456 138.848 146.528 138.992C145.616 139.12 144.688 139.248 143.744 139.376C142.8 139.488 141.896 139.592 141.032 139.688C140.184 139.768 139.44 139.824 138.8 139.856L137.192 138.368C137.928 138.352 138.76 138.32 139.688 138.272C140.632 138.208 141.624 138.136 142.664 138.056C143.704 137.96 144.736 137.864 145.76 137.768C146.8 137.656 147.768 137.536 148.664 137.408C149.576 137.28 150.368 137.152 151.04 137.024C151.2 136.992 151.296 137.04 151.328 137.168L151.424 137.84ZM147.32 130.28C147.32 131.176 147.088 131.976 146.624 132.68C146.16 133.384 145.52 133.936 144.704 134.336C143.904 134.736 142.992 134.936 141.968 134.936C140.944 134.936 140.024 134.736 139.208 134.336C138.408 133.936 137.776 133.384 137.312 132.68C136.848 131.976 136.616 131.176 136.616 130.28C136.616 129.4 136.848 128.608 137.312 127.904C137.776 127.2 138.408 126.648 139.208 126.248C140.024 125.848 140.944 125.648 141.968 125.648C142.992 125.648 143.904 125.848 144.704 126.248C145.52 126.648 146.16 127.2 146.624 127.904C147.088 128.608 147.32 129.4 147.32 130.28ZM145.232 130.28C145.232 129.64 145.088 129.088 144.8 128.624C144.528 128.144 144.144 127.776 143.648 127.52C143.152 127.264 142.592 127.136 141.968 127.136C141.344 127.136 140.784 127.264 140.288 127.52C139.792 127.776 139.4 128.144 139.112 128.624C138.824 129.088 138.68 129.64 138.68 130.28C138.68 130.92 138.824 131.48 139.112 131.96C139.4 132.424 139.792 132.784 140.288 133.04C140.784 133.296 141.344 133.424 141.968 133.424C142.592 133.424 143.152 133.296 143.648 133.04C144.144 132.784 144.528 132.424 144.8 131.96C145.088 131.48 145.232 130.92 145.232 130.28ZM167.736 132.608H165.744V128.888C165.568 128.728 165.344 128.584 165.072 128.456C164.816 128.328 164.544 128.224 164.256 128.144L164.4 127.544C164.432 127.448 164.512 127.4 164.64 127.4C164.896 127.4 165.224 127.408 165.624 127.424C166.04 127.44 166.448 127.464 166.848 127.496C167.248 127.528 167.56 127.56 167.784 127.592L167.736 128.816V132.608ZM172.992 128.576L167.184 128.84V127.616C167.36 127.616 167.616 127.608 167.952 127.592C168.304 127.56 168.672 127.536 169.056 127.52C169.456 127.504 169.816 127.488 170.136 127.472C170.472 127.44 170.712 127.416 170.856 127.4L171.456 127.016C171.728 127 172.048 127.008 172.416 127.04C172.8 127.072 173.096 127.104 173.304 127.136C173.512 127.168 173.616 127.288 173.616 127.496C173.616 127.72 173.584 127.92 173.52 128.096C173.472 128.272 173.416 128.4 173.352 128.48C173.256 128.544 173.136 128.576 172.992 128.576ZM181.344 145.592C181.312 145.368 181.28 145.064 181.248 144.68C181.232 144.296 181.216 143.872 181.2 143.408C181.184 142.96 181.168 142.536 181.152 142.136C181.152 141.72 181.152 141.384 181.152 141.128V124.472C180.976 124.232 180.72 124.008 180.384 123.8C180.048 123.576 179.688 123.4 179.304 123.272L179.52 122.648C179.536 122.584 179.568 122.544 179.616 122.528C179.664 122.512 179.736 122.504 179.832 122.504C180.12 122.504 180.456 122.536 180.84 122.6C181.24 122.664 181.624 122.744 181.992 122.84C182.376 122.936 182.672 123.032 182.88 123.128C183.104 123.224 183.208 123.4 183.192 123.656L183.12 124.856V140.48C183.12 140.944 183.096 141.488 183.048 142.112C183 142.736 182.92 143.352 182.808 143.96C182.712 144.584 182.592 145.128 182.448 145.592H181.344ZM176.544 143.936C176.512 143.696 176.48 143.384 176.448 143C176.432 142.632 176.416 142.24 176.4 141.824C176.384 141.408 176.368 141.008 176.352 140.624C176.352 140.224 176.352 139.904 176.352 139.664V126.056C176.192 125.832 175.96 125.624 175.656 125.432C175.352 125.24 175.024 125.08 174.672 124.952L174.888 124.328C174.936 124.232 175.04 124.184 175.2 124.184C175.472 124.184 175.792 124.224 176.16 124.304C176.528 124.368 176.88 124.448 177.216 124.544C177.552 124.624 177.824 124.712 178.032 124.808C178.224 124.888 178.32 125.048 178.32 125.288L178.248 126.392V139.016C178.248 139.464 178.224 139.992 178.176 140.6C178.128 141.192 178.056 141.784 177.96 142.376C177.864 142.968 177.752 143.488 177.624 143.936H176.544ZM181.824 133.256L177.672 133.352V132.056L181.824 131.96V133.256ZM176.64 136.976C175.808 137.264 174.896 137.536 173.904 137.792C172.928 138.032 171.96 138.232 171 138.392C170.056 138.536 169.192 138.64 168.408 138.704C168.28 138.72 168.136 138.728 167.976 138.728C167.832 138.728 167.696 138.728 167.568 138.728C167.136 138.728 166.776 138.616 166.488 138.392C166.2 138.152 165.984 137.832 165.84 137.432C165.808 137.32 165.784 137.168 165.768 136.976C165.752 136.768 165.744 136.544 165.744 136.304V131.168H167.736V136.616C167.736 136.904 167.888 137.048 168.192 137.048C168.752 137.032 169.392 137 170.112 136.952C170.832 136.888 171.576 136.808 172.344 136.712C173.128 136.6 173.888 136.48 174.624 136.352C175.36 136.208 176.032 136.048 176.64 135.872V136.976ZM202.148 125.672C201.796 125.672 201.324 125.672 200.732 125.672C200.156 125.672 199.532 125.68 198.86 125.696C198.204 125.696 197.556 125.704 196.916 125.72C196.292 125.736 195.732 125.752 195.236 125.768C194.74 125.768 194.38 125.776 194.156 125.792C193.868 125.808 193.5 125.856 193.052 125.936C192.62 126.016 192.26 126.104 191.972 126.2C191.572 126.04 191.18 125.848 190.796 125.624C190.412 125.4 190.076 125.168 189.788 124.928C189.676 124.832 189.644 124.736 189.692 124.64L189.86 124.304C190.244 124.368 190.668 124.424 191.132 124.472C191.612 124.52 192.028 124.544 192.38 124.544C192.588 124.544 192.932 124.544 193.412 124.544C193.892 124.544 194.46 124.536 195.116 124.52C195.788 124.504 196.476 124.496 197.18 124.496C197.884 124.48 198.564 124.464 199.22 124.448C199.892 124.432 200.484 124.416 200.996 124.4C201.524 124.384 201.908 124.368 202.148 124.352V125.672ZM202.004 138.848C201.636 138.848 201.164 138.848 200.588 138.848C200.012 138.848 199.388 138.848 198.716 138.848C198.06 138.848 197.412 138.856 196.772 138.872C196.132 138.888 195.564 138.904 195.068 138.92C194.572 138.92 194.22 138.928 194.012 138.944C193.724 138.96 193.356 139.008 192.908 139.088C192.46 139.152 192.1 139.24 191.828 139.352C191.428 139.192 191.036 139.008 190.652 138.8C190.268 138.576 189.932 138.352 189.644 138.128C189.548 138.048 189.524 137.96 189.572 137.864L189.74 137.504C190.124 137.568 190.54 137.624 190.988 137.672C191.452 137.704 191.86 137.72 192.212 137.72C192.42 137.72 192.764 137.72 193.244 137.72C193.724 137.704 194.292 137.696 194.948 137.696C195.604 137.68 196.292 137.672 197.012 137.672C197.732 137.656 198.42 137.64 199.076 137.624C199.748 137.608 200.34 137.6 200.852 137.6C201.364 137.584 201.748 137.568 202.004 137.552V138.848ZM204.284 125.768L201.956 125.672L202.076 124.352L202.988 123.944C203.116 123.864 203.252 123.864 203.396 123.944C203.572 124.024 203.78 124.128 204.02 124.256C204.276 124.384 204.468 124.488 204.596 124.568C204.692 124.648 204.708 124.76 204.644 124.904L204.284 125.768ZM203.852 138.968L201.788 138.848L201.908 137.552L202.652 137.216C202.78 137.136 202.908 137.136 203.036 137.216C203.196 137.28 203.388 137.384 203.612 137.528C203.836 137.656 203.996 137.76 204.092 137.84C204.172 137.92 204.188 138.024 204.14 138.152L203.852 138.968ZM201.356 132.512C201.244 132.496 201.196 132.392 201.212 132.2C201.372 131.576 201.5 130.872 201.596 130.088C201.692 129.288 201.772 128.504 201.836 127.736C201.9 126.952 201.94 126.264 201.956 125.672L203.204 125.288L204.284 125.768C204.204 126.424 204.068 127.152 203.876 127.952C203.7 128.752 203.484 129.544 203.228 130.328C202.988 131.096 202.724 131.792 202.436 132.416C202.372 132.544 202.26 132.6 202.1 132.584L201.356 132.512ZM196.7 138.272C196.668 138 196.636 137.672 196.604 137.288C196.588 136.888 196.572 136.496 196.556 136.112C196.556 135.712 196.556 135.368 196.556 135.08V132.632H198.548V134.6C198.548 134.952 198.524 135.36 198.476 135.824C198.444 136.272 198.388 136.72 198.308 137.168C198.228 137.6 198.132 137.968 198.02 138.272H196.7ZM201.98 145.832C201.948 145.56 201.916 145.232 201.884 144.848C201.852 144.48 201.828 144.104 201.812 143.72C201.796 143.336 201.788 143 201.788 142.712V138.848H203.852L203.78 142.232C203.78 142.584 203.756 142.976 203.708 143.408C203.66 143.856 203.596 144.288 203.516 144.704C203.436 145.136 203.34 145.512 203.228 145.832H201.98ZM205.412 131.432C205.716 131.432 206.044 131.456 206.396 131.504C206.764 131.552 207.108 131.6 207.428 131.648C207.748 131.696 208.004 131.752 208.196 131.816C208.42 131.896 208.532 132.048 208.532 132.272C208.532 132.496 208.468 132.704 208.34 132.896C208.212 133.088 208.084 133.216 207.956 133.28C207.764 133.248 207.484 133.224 207.116 133.208C206.764 133.192 206.404 133.184 206.036 133.184C205.668 133.168 205.364 133.16 205.124 133.16C204.852 133.16 204.356 133.16 203.636 133.16C202.916 133.16 202.076 133.168 201.116 133.184C200.172 133.2 199.18 133.216 198.14 133.232C197.116 133.232 196.132 133.24 195.188 133.256C194.26 133.272 193.46 133.288 192.788 133.304C192.116 133.32 191.668 133.336 191.444 133.352C191.252 133.368 190.996 133.4 190.676 133.448C190.356 133.496 190.036 133.552 189.716 133.616C189.412 133.68 189.156 133.744 188.948 133.808C188.5 133.648 188.052 133.448 187.604 133.208C187.172 132.952 186.804 132.688 186.5 132.416C186.42 132.352 186.396 132.272 186.428 132.176L186.62 131.816C187.036 131.88 187.5 131.936 188.012 131.984C188.54 132.032 188.996 132.064 189.38 132.08C189.604 132.08 190.012 132.08 190.604 132.08C191.196 132.08 191.908 132.08 192.74 132.08C193.572 132.064 194.468 132.048 195.428 132.032C196.388 132.016 197.348 132 198.308 131.984C199.268 131.968 200.172 131.952 201.02 131.936C201.868 131.92 202.596 131.904 203.204 131.888C203.828 131.872 204.26 131.856 204.5 131.84L205.412 131.432Z" fill="#140b02" opacity="0.75"/>
    <!-- Crisp Gold Fill Layer -->
    <path d="M106.576 138.496C106.88 138.496 107.208 138.52 107.56 138.568C107.928 138.6 108.272 138.648 108.592 138.712C108.912 138.76 109.168 138.816 109.36 138.88C109.584 138.96 109.696 139.112 109.696 139.336C109.696 139.56 109.632 139.768 109.504 139.96C109.376 140.152 109.248 140.272 109.12 140.32C108.928 140.288 108.648 140.264 108.28 140.248C107.928 140.232 107.568 140.224 107.2 140.224C106.832 140.208 106.528 140.2 106.288 140.2C106.016 140.2 105.52 140.208 104.8 140.224C104.08 140.224 103.24 140.232 102.28 140.248C101.336 140.248 100.344 140.256 99.3042 140.272C98.2802 140.272 97.2962 140.28 96.3522 140.296C95.4242 140.312 94.6242 140.328 93.9522 140.344C93.2802 140.36 92.8322 140.376 92.6082 140.392C92.4162 140.408 92.1602 140.448 91.8402 140.512C91.5202 140.56 91.2002 140.616 90.8802 140.68C90.5762 140.744 90.3202 140.808 90.1122 140.872C89.6642 140.712 89.2162 140.504 88.7682 140.248C88.3362 139.992 87.9682 139.736 87.6642 139.48C87.5842 139.416 87.5602 139.336 87.5922 139.24L87.7842 138.88C88.2002 138.944 88.6642 139 89.1762 139.048C89.7042 139.096 90.1602 139.128 90.5442 139.144C90.7682 139.144 91.1762 139.144 91.7682 139.144C92.3602 139.144 93.0722 139.144 93.9042 139.144C94.7362 139.128 95.6322 139.112 96.5922 139.096C97.5522 139.08 98.5122 139.064 99.4722 139.048C100.432 139.032 101.336 139.016 102.184 139C103.032 138.984 103.76 138.968 104.368 138.952C104.992 138.936 105.424 138.92 105.664 138.904L106.576 138.496ZM103.864 125.92C103.464 125.92 102.944 125.928 102.304 125.944C101.664 125.944 100.968 125.952 100.216 125.968C99.4802 125.968 98.7602 125.976 98.0562 125.992C97.3522 126.008 96.7202 126.024 96.1602 126.04C95.6162 126.056 95.2162 126.072 94.9602 126.088C94.6562 126.104 94.2562 126.152 93.7602 126.232C93.2802 126.312 92.8962 126.4 92.6082 126.496C92.2242 126.336 91.8402 126.136 91.4562 125.896C91.0722 125.656 90.7362 125.416 90.4482 125.176C90.3522 125.08 90.3282 124.992 90.3762 124.912L90.5442 124.576C90.9282 124.64 91.3442 124.696 91.7922 124.744C92.2562 124.776 92.6562 124.792 92.9922 124.792C93.2162 124.792 93.5922 124.792 94.1202 124.792C94.6642 124.792 95.3042 124.792 96.0402 124.792C96.7762 124.776 97.5362 124.76 98.3202 124.744C99.1202 124.728 99.8882 124.712 100.624 124.696C101.376 124.68 102.04 124.664 102.616 124.648C103.192 124.632 103.608 124.616 103.864 124.6V125.92ZM106.024 126.088L103.696 125.92V124.624L104.68 124.144C104.824 124.08 104.968 124.08 105.112 124.144C105.288 124.224 105.504 124.344 105.76 124.504C106.016 124.648 106.2 124.768 106.312 124.864C106.408 124.96 106.432 125.072 106.384 125.2L106.024 126.088ZM103.12 136.216C103.008 136.2 102.96 136.088 102.976 135.88C103.088 135.16 103.192 134.376 103.288 133.528C103.384 132.664 103.456 131.784 103.504 130.888C103.568 129.976 103.616 129.096 103.648 128.248C103.68 127.4 103.696 126.624 103.696 125.92L104.944 125.56L106.024 126.088C105.992 127.032 105.88 128.104 105.688 129.304C105.512 130.488 105.28 131.68 104.992 132.88C104.704 134.08 104.384 135.16 104.032 136.12C103.968 136.264 103.848 136.328 103.672 136.312L103.12 136.216ZM96.6882 132.736C96.5442 132.576 96.3282 132.424 96.0402 132.28C95.7682 132.12 95.4802 131.992 95.1762 131.896L95.3202 131.296C95.3362 131.248 95.3602 131.216 95.3922 131.2C95.4402 131.168 95.5122 131.152 95.6082 131.152C95.8802 131.152 96.2082 131.176 96.5922 131.224C96.9762 131.256 97.3442 131.304 97.6962 131.368C98.0642 131.416 98.3522 131.472 98.5602 131.536C98.7522 131.6 98.8402 131.744 98.8242 131.968L98.7042 133.072L96.6882 132.736ZM98.6322 139.528H96.7362L96.6882 132.736L98.7042 133.072L98.6322 139.528ZM129.756 133.624C130.06 133.624 130.388 133.648 130.74 133.696C131.108 133.728 131.452 133.776 131.772 133.84C132.092 133.888 132.348 133.944 132.54 134.008C132.764 134.072 132.876 134.216 132.876 134.44C132.876 134.68 132.812 134.896 132.684 135.088C132.556 135.264 132.428 135.384 132.3 135.448C132.108 135.416 131.828 135.392 131.46 135.376C131.108 135.36 130.748 135.352 130.38 135.352C130.012 135.336 129.708 135.328 129.468 135.328C129.196 135.328 128.7 135.336 127.98 135.352C127.26 135.352 126.42 135.36 125.46 135.376C124.516 135.376 123.524 135.384 122.484 135.4C121.46 135.4 120.476 135.408 119.532 135.424C118.604 135.44 117.804 135.456 117.132 135.472C116.46 135.488 116.012 135.504 115.788 135.52C115.596 135.536 115.34 135.576 115.02 135.64C114.7 135.688 114.38 135.744 114.06 135.808C113.756 135.872 113.5 135.936 113.292 136C112.844 135.84 112.396 135.632 111.948 135.376C111.516 135.12 111.148 134.864 110.844 134.608C110.764 134.528 110.74 134.448 110.772 134.368L110.964 134.008C111.38 134.072 111.844 134.128 112.356 134.176C112.884 134.224 113.34 134.248 113.724 134.248C113.948 134.248 114.356 134.248 114.948 134.248C115.54 134.248 116.252 134.248 117.084 134.248C117.916 134.232 118.812 134.224 119.772 134.224C120.732 134.208 121.692 134.192 122.652 134.176C123.612 134.16 124.516 134.144 125.364 134.128C126.212 134.112 126.94 134.096 127.548 134.08C128.172 134.048 128.604 134.024 128.844 134.008L129.756 133.624ZM121.02 144.424C121.004 144.168 120.98 143.84 120.948 143.44C120.932 143.04 120.916 142.616 120.9 142.168C120.884 141.736 120.868 141.32 120.852 140.92C120.852 140.52 120.852 140.176 120.852 139.888V134.632H122.868V139.264C122.868 139.6 122.844 140 122.796 140.464C122.764 140.912 122.716 141.384 122.652 141.88C122.604 142.36 122.532 142.816 122.436 143.248C122.356 143.696 122.268 144.088 122.172 144.424H121.02ZM121.236 124.12C120.964 123.736 120.548 123.4 119.988 123.112L120.324 122.56C120.388 122.464 120.5 122.424 120.66 122.44C120.98 122.472 121.324 122.536 121.692 122.632C122.06 122.728 122.404 122.832 122.724 122.944C123.06 123.04 123.316 123.144 123.492 123.256C123.732 123.352 123.852 123.528 123.852 123.784L121.236 124.12ZM112.812 131.68C112.748 131.584 112.78 131.504 112.908 131.44C114.204 130.784 115.388 130.056 116.46 129.256C117.548 128.456 118.492 127.624 119.292 126.76C120.108 125.88 120.756 125 121.236 124.12L123.852 123.784C123.836 123.912 123.812 124.024 123.78 124.12C123.748 124.216 123.716 124.296 123.684 124.36C123.092 125.448 122.284 126.472 121.26 127.432C120.252 128.392 119.076 129.264 117.732 130.048C116.404 130.816 114.948 131.472 113.364 132.016C113.268 132.048 113.18 132.048 113.1 132.016L112.812 131.68ZM129.348 130.912L121.068 126.784L126.996 128.272L128.676 128.488C128.964 128.664 129.276 128.88 129.612 129.136C129.964 129.376 130.22 129.584 130.38 129.76C130.636 130.016 130.764 130.232 130.764 130.408C130.764 130.584 130.692 130.744 130.548 130.888C130.404 131.032 130.244 131.112 130.068 131.128C129.972 131.128 129.852 131.112 129.708 131.08C129.58 131.032 129.46 130.976 129.348 130.912ZM126.996 128.272L126.924 128.416L121.068 126.784L121.644 125.68L126.996 128.272ZM151.136 144.592C151.104 144.352 151.072 144.024 151.04 143.608C151.024 143.208 151.008 142.776 150.992 142.312C150.976 141.848 150.96 141.408 150.944 140.992C150.944 140.56 150.944 140.208 150.944 139.936V123.568C150.752 123.312 150.472 123.072 150.104 122.848C149.752 122.608 149.36 122.416 148.928 122.272L149.144 121.624C149.16 121.576 149.184 121.544 149.216 121.528C149.264 121.512 149.336 121.504 149.432 121.504C149.752 121.504 150.12 121.544 150.536 121.624C150.952 121.688 151.36 121.768 151.76 121.864C152.16 121.96 152.48 122.056 152.72 122.152C152.944 122.232 153.048 122.408 153.032 122.68L152.96 124V139.264C152.96 139.616 152.944 140.024 152.912 140.488C152.88 140.952 152.832 141.432 152.768 141.928C152.72 142.424 152.656 142.904 152.576 143.368C152.496 143.832 152.4 144.24 152.288 144.592H151.136ZM138.8 138.856C138.544 138.872 138.208 138.928 137.792 139.024C137.376 139.104 137.056 139.192 136.832 139.288C136.4 139.112 135.96 138.888 135.512 138.616C135.064 138.328 134.672 138.04 134.336 137.752C134.224 137.672 134.2 137.584 134.264 138.488L134.408 137.152C134.856 137.216 135.328 137.272 135.824 137.32C136.32 137.352 136.776 137.368 137.192 137.368L138.8 138.856ZM151.424 136.84C151.44 136.984 151.376 137.072 151.232 137.104C150.64 137.248 149.936 137.4 149.12 137.56C148.32 137.704 147.456 137.848 146.528 137.992C145.616 138.12 144.688 138.248 143.744 138.376C142.8 138.488 141.896 138.592 141.032 138.688C140.184 138.768 139.44 138.824 138.8 138.856L137.192 137.368C137.928 137.352 138.76 137.32 139.688 137.272C140.632 137.208 141.624 137.136 142.664 137.056C143.704 136.96 144.736 136.864 145.76 136.768C146.8 136.656 147.768 136.536 148.664 136.408C149.576 136.28 150.368 136.152 151.04 136.024C151.2 135.992 151.296 136.04 151.328 136.168L151.424 136.84ZM147.32 129.28C147.32 130.176 147.088 130.976 146.624 131.68C146.16 132.384 145.52 132.936 144.704 133.336C143.904 133.736 142.992 133.936 141.968 133.936C140.944 133.936 140.024 133.736 139.208 133.336C138.408 132.936 137.776 132.384 137.312 131.68C136.848 130.976 136.616 130.176 136.616 129.28C136.616 128.4 136.848 127.608 137.312 126.904C137.776 126.2 138.408 125.648 139.208 125.248C140.024 124.848 140.944 124.648 141.968 124.648C142.992 124.648 143.904 124.848 144.704 125.248C145.52 125.648 146.16 126.2 146.624 126.904C147.088 127.608 147.32 128.4 147.32 129.28ZM145.232 129.28C145.232 128.64 145.088 128.088 144.8 127.624C144.528 127.144 144.144 126.776 143.648 126.52C143.152 126.264 142.592 126.136 141.968 126.136C141.344 126.136 140.784 126.264 140.288 126.52C139.792 126.776 139.4 127.144 139.112 127.624C138.824 128.088 138.68 128.64 138.68 129.28C138.68 129.92 138.824 130.48 139.112 130.96C139.4 131.424 139.792 131.784 140.288 132.04C140.784 132.296 141.344 132.424 141.968 132.424C142.592 132.424 143.152 132.296 143.648 132.04C144.144 131.784 144.528 131.424 144.8 130.96C145.088 130.48 145.232 129.92 145.232 129.28ZM167.736 131.608H165.744V127.888C165.568 127.728 165.344 127.584 165.072 127.456C164.816 127.328 164.544 127.224 164.256 127.144L164.4 126.544C164.432 126.448 164.512 126.4 164.64 126.4C164.896 126.4 165.224 126.408 165.624 126.424C166.04 126.44 166.448 126.464 166.848 126.496C167.248 126.528 167.56 126.56 167.784 126.592L167.736 127.816V131.608ZM172.992 127.576L167.184 127.84V126.616C167.36 126.616 167.616 126.608 167.952 126.592C168.304 126.56 168.672 126.536 169.056 126.52C169.456 126.504 169.816 126.488 170.136 126.472C170.472 126.44 170.712 126.416 170.856 126.4L171.456 126.016C171.728 126 172.048 126.008 172.416 126.04C172.8 126.072 173.096 126.104 173.304 126.136C173.512 126.168 173.616 126.288 173.616 126.496C173.616 126.72 173.584 126.92 173.52 127.096C173.472 127.272 173.416 127.4 173.352 127.48C173.256 127.544 173.136 127.576 172.992 127.576ZM181.344 144.592C181.312 144.368 181.28 144.064 181.248 143.68C181.232 143.296 181.216 142.872 181.2 142.408C181.184 141.96 181.168 141.536 181.152 141.136C181.152 140.72 181.152 140.384 181.152 140.128V123.472C180.976 123.232 180.72 123.008 180.384 122.8C180.048 122.576 179.688 122.4 179.304 122.272L179.52 121.648C179.536 121.584 179.568 121.544 179.616 121.528C179.664 121.512 179.736 121.504 179.832 121.504C180.12 121.504 180.456 121.536 180.84 121.6C181.24 121.664 181.624 121.744 181.992 121.84C182.376 121.936 182.672 122.032 182.88 122.128C183.104 122.224 183.208 122.4 183.192 122.656L183.12 123.856V139.48C183.12 139.944 183.096 140.488 183.048 141.112C183 141.736 182.92 142.352 182.808 142.96C182.712 143.584 182.592 144.128 182.448 144.592H181.344ZM176.544 142.936C176.512 142.696 176.48 142.384 176.448 142C176.432 141.632 176.416 141.24 176.4 140.824C176.384 140.408 176.368 140.008 176.352 139.624C176.352 139.224 176.352 138.904 176.352 138.664V125.056C176.192 124.832 175.96 124.624 175.656 124.432C175.352 124.24 175.024 124.08 174.672 123.952L174.888 123.328C174.936 123.232 175.04 123.184 175.2 123.184C175.472 123.184 175.792 123.224 176.16 123.304C176.528 123.368 176.88 123.448 177.216 123.544C177.552 123.624 177.824 123.712 178.032 123.808C178.224 123.888 178.32 124.048 178.32 125.288L178.248 126.392V138.016C178.248 138.464 178.224 138.992 178.176 139.6C178.128 140.192 178.056 140.784 177.96 141.376C177.864 141.968 177.752 142.488 177.624 142.936H176.544ZM181.824 132.256L177.672 132.352V131.056L181.824 130.96V132.256ZM176.64 135.976C175.808 136.264 174.896 136.536 173.904 136.792C172.928 137.032 171.96 137.232 171 137.392C170.056 137.536 169.192 137.64 168.408 137.704C168.28 137.72 168.136 137.728 167.976 137.728C167.832 137.728 167.696 137.728 167.568 137.728C167.136 137.728 166.776 137.616 166.488 137.392C166.2 137.152 165.984 136.832 165.84 136.432C165.808 136.32 165.784 136.168 165.768 135.976C165.752 135.768 165.744 135.544 165.744 135.304V130.168H167.736V135.616C167.736 135.904 167.888 136.048 168.192 136.048C168.752 136.032 169.392 136 170.112 135.952C170.832 135.888 171.576 135.808 172.344 135.712C173.128 135.6 173.888 135.48 174.624 135.352C175.36 135.208 176.032 135.048 176.64 134.872V135.976ZM202.148 124.672C201.796 124.672 201.324 124.672 200.732 124.672C200.156 124.672 199.532 124.68 198.86 124.696C198.204 124.696 197.556 124.704 196.916 124.72C196.292 124.736 195.732 124.752 195.236 124.768C194.74 124.768 194.38 124.776 194.156 124.792C193.868 124.808 193.5 124.856 193.052 124.936C192.62 125.016 192.26 125.104 191.972 125.2C191.572 125.04 191.18 124.848 190.796 124.624C190.412 124.4 190.076 124.168 189.788 123.928C189.676 123.832 189.644 123.736 189.692 123.64L189.86 123.304C190.244 123.368 190.668 123.424 191.132 123.472C191.612 123.52 192.028 123.544 192.38 123.544C192.588 123.544 192.932 123.544 193.412 123.544C193.892 123.544 194.46 123.536 195.116 123.52C195.788 123.504 196.476 123.496 197.18 123.496C197.884 123.48 198.564 123.464 199.22 123.448C199.892 123.432 200.484 123.416 200.996 123.4C201.524 123.384 201.908 123.368 202.148 123.352V124.672ZM202.004 137.848C201.636 137.848 201.164 137.848 200.588 137.848C200.012 137.848 199.388 137.848 198.716 137.848C198.06 137.848 197.412 137.856 196.772 137.872C196.132 138.888 195.564 137.904 195.068 137.92C194.572 137.92 194.22 137.928 194.012 137.944C193.724 137.96 193.356 138.008 192.908 138.088C192.46 138.152 192.1 138.24 191.828 138.352C191.428 138.192 191.036 138.008 190.652 137.8C190.268 137.576 189.932 137.352 189.644 137.128C189.548 137.048 189.524 136.96 189.572 136.864L189.74 136.504C190.124 136.568 190.54 136.624 190.988 136.672C191.452 136.704 191.86 136.72 192.212 136.72C192.42 136.72 192.764 136.72 193.244 136.72C193.724 136.704 194.292 136.696 194.948 136.696C195.604 136.68 196.292 136.672 197.012 136.672C197.732 136.656 198.42 136.64 199.076 136.624C199.748 136.608 200.34 136.6 200.852 136.6C201.364 136.584 201.748 136.568 202.004 136.552V137.848ZM204.284 124.768L201.956 124.672L202.076 123.352L202.988 122.944C203.116 122.864 203.252 122.864 203.396 122.944C203.572 123.024 203.78 123.128 204.02 123.256C204.276 123.384 204.468 123.488 204.596 123.568C204.692 123.648 204.708 123.76 204.644 123.904L204.284 124.768ZM203.852 137.968L201.788 137.848L201.908 136.552L202.652 136.216C202.78 136.136 202.908 136.136 203.036 136.216C203.196 136.28 203.388 136.384 203.612 136.528C203.836 136.656 203.996 136.76 204.092 136.84C204.172 136.92 204.188 137.024 204.14 137.152L203.852 137.968ZM201.356 131.512C201.244 131.496 201.196 131.392 201.212 131.2C201.372 130.576 201.5 129.872 201.596 129.088C201.692 128.288 201.772 127.504 201.836 126.736C201.9 125.952 201.94 125.264 201.956 124.672L203.204 124.288L204.284 124.768C204.204 125.424 204.068 126.152 203.876 126.952C203.7 127.752 203.484 128.544 203.228 129.328C202.988 131.096 202.724 130.792 202.436 131.416C202.372 131.544 202.26 131.6 202.1 131.584L201.356 131.512ZM196.7 137.272C196.668 137 196.636 136.672 196.604 136.288C196.588 135.888 196.572 135.496 196.556 135.112C196.556 134.712 196.556 134.368 196.556 134.08V131.632H198.548V133.6C198.548 133.952 198.524 134.36 198.476 134.824C198.444 135.272 198.388 135.72 198.308 136.168C198.228 136.6 198.132 136.968 198.02 137.272H196.7ZM201.98 144.832C201.948 144.56 201.916 144.232 201.884 143.848C201.852 143.48 201.828 143.104 201.812 142.72C201.796 142.336 201.788 142 201.788 141.712V137.848H203.852L203.78 141.232C203.78 141.584 203.756 141.976 203.708 142.408C203.66 142.856 203.596 143.288 203.516 143.704C203.436 144.136 203.34 144.512 203.228 144.832H201.98ZM205.412 130.432C205.716 130.432 206.044 130.456 206.396 130.504C206.764 130.552 207.108 130.6 207.428 130.648C207.748 130.696 208.004 130.752 208.196 130.816C208.42 130.896 208.532 131.048 208.532 131.272C208.532 131.496 208.468 131.704 208.34 131.896C208.212 132.088 208.084 132.216 207.956 132.28C207.764 132.248 207.484 132.224 207.116 132.208C206.764 132.192 206.404 132.184 206.036 132.184C205.668 132.168 205.364 132.16 205.124 132.16C204.852 132.16 204.356 132.16 203.636 132.16C202.916 132.16 202.076 132.168 201.116 132.184C200.172 132.2 199.18 132.216 198.14 132.232C197.116 132.232 196.132 132.24 195.188 132.256C194.26 132.272 193.46 132.288 192.788 132.304C192.116 132.32 191.668 132.336 191.444 132.352C191.252 132.368 190.996 132.4 190.676 132.448C190.356 132.496 190.036 132.552 189.716 132.616C189.412 132.68 189.156 132.744 188.948 132.808C188.5 132.648 188.052 132.448 187.604 132.208C187.172 131.952 186.804 131.688 186.5 131.416C186.42 131.352 186.396 131.272 186.428 131.176L186.62 130.816C187.036 130.88 187.5 130.936 188.012 130.984C188.54 131.032 188.996 131.064 189.38 131.08C189.604 131.08 190.012 131.08 190.604 131.08C191.196 131.08 191.908 131.08 192.74 131.08C193.572 131.064 194.468 131.048 195.428 131.032C196.388 131.016 197.348 131 198.308 130.984C199.268 130.968 200.172 130.952 201.02 130.936C201.868 130.92 202.596 130.904 203.204 130.888C203.828 130.872 204.26 130.856 204.5 130.84L205.412 130.432Z" fill="url(#paint3_linear_34_341)"/>
  </g>

  <defs>
    <linearGradient id="paint0_linear_34_341" x1="147.998" y1="4" x2="147.998" y2="42.3074" gradientUnits="userSpaceOnUse">
      <stop offset="0.1" stop-color="#FFF0A0"/>
      <stop offset="0.4" stop-color="#F8C03D"/>
      <stop offset="0.7" stop-color="#F8FFA8"/>
      <stop offset="1.0" stop-color="#EAA620"/>
    </linearGradient>
    <linearGradient id="paint1_linear_34_341" x1="147.998" y1="38.7765" x2="147.998" y2="48" gradientUnits="userSpaceOnUse">
      <stop offset="0.1" stop-color="#FFF0A0"/>
      <stop offset="0.4" stop-color="#F8C03D"/>
      <stop offset="0.7" stop-color="#F8FFA8"/>
      <stop offset="1.0" stop-color="#EAA620"/>
    </linearGradient>
    <linearGradient id="paint2_linear_34_341" x1="26" y1="60" x2="24" y2="106" gradientUnits="userSpaceOnUse">
      <stop offset="0" stop-color="#FFBE33"/>
      <stop offset="0.35" stop-color="#FFF2C2"/>
      <stop offset="0.7" stop-color="#EAA620"/>
      <stop offset="1" stop-color="#B87700"/>
    </linearGradient>
    <linearGradient id="paint3_linear_34_341" x1="21.9483" y1="124" x2="21.6522" y2="142" gradientUnits="userSpaceOnUse">
      <stop offset="0" stop-color="#FFBE33"/>
      <stop offset="0.35" stop-color="#FFF2C2"/>
      <stop offset="0.7" stop-color="#EAA620"/>
      <stop offset="1" stop-color="#B87700"/>
    </linearGradient>
    <clipPath id="clip0_34_341">
      <rect width="71" height="44" fill="white" transform="translate(112.5 4)"/>
    </clipPath>
  </defs>
</svg>
